<svg width="15" height="17" viewBox="0 0 15 17" fill="none" xmlns="http://www.w3.org/2000/svg">
<path d="M7.5 17C8.68259 17 9.64185 16.0487 9.64185 14.875H5.35815C5.35815 16.0487 6.31741 17 7.5 17ZM14.7117 12.0292C14.0648 11.3399 12.8544 10.3029 12.8544 6.90625C12.8544 4.32637 11.0303 2.26113 8.57076 1.75445V1.0625C8.57076 0.475801 8.09129 0 7.5 0C6.90871 0 6.42924 0.475801 6.42924 1.0625V1.75445C3.96965 2.26113 2.14555 4.32637 2.14555 6.90625C2.14555 10.3029 0.935177 11.3399 0.288304 12.0292C0.0874113 12.2433 -0.00165095 12.4993 2.31491e-05 12.75C0.00370617 13.2945 0.43462 13.8125 1.0748 13.8125H13.9252C14.5654 13.8125 14.9966 13.2945 15 12.75C15.0017 12.4993 14.9126 12.243 14.7117 12.0292Z" fill="white"/>
</svg>
