<svg width="10" height="12" viewBox="0 0 10 12" fill="none" xmlns="http://www.w3.org/2000/svg">
<path d="M1.07143 5.25831H1.60714V3.70976C1.60714 1.90743 3.12946 0.440613 5 0.440613C6.87054 0.440613 8.39286 1.90743 8.39286 3.70976V5.25831H8.92857C9.52009 5.25831 10 5.72072 10 6.29067V10.4201C10 10.9901 9.52009 11.4525 8.92857 11.4525H1.07143C0.479911 11.4525 0 10.9901 0 10.4201V6.29067C0 5.72072 0.479911 5.25831 1.07143 5.25831ZM3.39286 5.25831H6.60714V3.70976C6.60714 2.85591 5.88616 2.16122 5 2.16122C4.11384 2.16122 3.39286 2.85591 3.39286 3.70976V5.25831Z" fill="#747474"/>
</svg>
