<svg width="11" height="12" viewBox="0 0 11 12" fill="none" xmlns="http://www.w3.org/2000/svg">
<path d="M5.5 6.57756C3.79199 6.57756 2.40625 5.19032 2.40625 3.48046C2.40625 1.7706 3.79199 0.383362 5.5 0.383362C7.20801 0.383362 8.59375 1.7706 8.59375 3.48046C8.59375 5.19032 7.20801 6.57756 5.5 6.57756ZM2.75 7.2658H3.93379C4.41074 7.48518 4.94141 7.60992 5.5 7.60992C6.05859 7.60992 6.58711 7.48518 7.06621 7.2658H8.25C9.76895 7.2658 11 8.49819 11 10.0188V10.3629C11 10.9328 10.5381 11.3953 9.96875 11.3953H1.03125C0.461914 11.3953 0 10.9328 0 10.3629V10.0188C0 8.49819 1.23105 7.2658 2.75 7.2658Z" fill="#747474"/>
</svg>
