<svg width="13" height="15" viewBox="0 0 13 15" fill="none" xmlns="http://www.w3.org/2000/svg">
<path d="M0 13.4643C0 14.2333 0.623884 14.8571 1.39286 14.8571H11.6071C12.3761 14.8571 13 14.2333 13 13.4643V5.57143H0V13.4643ZM9.28571 7.77679C9.28571 7.58527 9.44241 7.42857 9.63393 7.42857H10.7946C10.9862 7.42857 11.1429 7.58527 11.1429 7.77679V8.9375C11.1429 9.12902 10.9862 9.28571 10.7946 9.28571H9.63393C9.44241 9.28571 9.28571 9.12902 9.28571 8.9375V7.77679ZM9.28571 11.4911C9.28571 11.2996 9.44241 11.1429 9.63393 11.1429H10.7946C10.9862 11.1429 11.1429 11.2996 11.1429 11.4911V12.6518C11.1429 12.8433 10.9862 13 10.7946 13H9.63393C9.44241 13 9.28571 12.8433 9.28571 12.6518V11.4911ZM5.57143 7.77679C5.57143 7.58527 5.72812 7.42857 5.91964 7.42857H7.08036C7.27187 7.42857 7.42857 7.58527 7.42857 7.77679V8.9375C7.42857 9.12902 7.27187 9.28571 7.08036 9.28571H5.91964C5.72812 9.28571 5.57143 9.12902 5.57143 8.9375V7.77679ZM5.57143 11.4911C5.57143 11.2996 5.72812 11.1429 5.91964 11.1429H7.08036C7.27187 11.1429 7.42857 11.2996 7.42857 11.4911V12.6518C7.42857 12.8433 7.27187 13 7.08036 13H5.91964C5.72812 13 5.57143 12.8433 5.57143 12.6518V11.4911ZM1.85714 7.77679C1.85714 7.58527 2.01384 7.42857 2.20536 7.42857H3.36607C3.55759 7.42857 3.71429 7.58527 3.71429 7.77679V8.9375C3.71429 9.12902 3.55759 9.28571 3.36607 9.28571H2.20536C2.01384 9.28571 1.85714 9.12902 1.85714 8.9375V7.77679ZM1.85714 11.4911C1.85714 11.2996 2.01384 11.1429 2.20536 11.1429H3.36607C3.55759 11.1429 3.71429 11.2996 3.71429 11.4911V12.6518C3.71429 12.8433 3.55759 13 3.36607 13H2.20536C2.01384 13 1.85714 12.8433 1.85714 12.6518V11.4911ZM11.6071 1.85714H10.2143V0.464286C10.2143 0.208929 10.0054 0 9.75 0H8.82143C8.56607 0 8.35714 0.208929 8.35714 0.464286V1.85714H4.64286V0.464286C4.64286 0.208929 4.43393 0 4.17857 0H3.25C2.99464 0 2.78571 0.208929 2.78571 0.464286V1.85714H1.39286C0.623884 1.85714 0 2.48103 0 3.25V4.64286H13V3.25C13 2.48103 12.3761 1.85714 11.6071 1.85714Z" fill="#747474"/>
</svg>
