<svg width="13" height="15" viewBox="0 0 13 15" fill="none" xmlns="http://www.w3.org/2000/svg">
<path d="M0.928571 13.4643C0.928571 13.8337 1.07532 14.188 1.33653 14.4492C1.59774 14.7104 1.95202 14.8571 2.32143 14.8571H10.6786C11.048 14.8571 11.4023 14.7104 11.6635 14.4492C11.9247 14.188 12.0714 13.8337 12.0714 13.4643V3.71429H0.928571V13.4643ZM8.82143 6.03572C8.82143 5.91258 8.87034 5.79449 8.95741 5.70742C9.04448 5.62035 9.16258 5.57143 9.28571 5.57143C9.40885 5.57143 9.52694 5.62035 9.61401 5.70742C9.70108 5.79449 9.75 5.91258 9.75 6.03572V12.5357C9.75 12.6589 9.70108 12.7769 9.61401 12.864C9.52694 12.9511 9.40885 13 9.28571 13C9.16258 13 9.04448 12.9511 8.95741 12.864C8.87034 12.7769 8.82143 12.6589 8.82143 12.5357V6.03572ZM6.03571 6.03572C6.03571 5.91258 6.08463 5.79449 6.1717 5.70742C6.25877 5.62035 6.37686 5.57143 6.5 5.57143C6.62314 5.57143 6.74123 5.62035 6.8283 5.70742C6.91537 5.79449 6.96429 5.91258 6.96429 6.03572V12.5357C6.96429 12.6589 6.91537 12.7769 6.8283 12.864C6.74123 12.9511 6.62314 13 6.5 13C6.37686 13 6.25877 12.9511 6.1717 12.864C6.08463 12.7769 6.03571 12.6589 6.03571 12.5357V6.03572ZM3.25 6.03572C3.25 5.91258 3.29892 5.79449 3.38599 5.70742C3.47306 5.62035 3.59115 5.57143 3.71429 5.57143C3.83742 5.57143 3.95551 5.62035 4.04258 5.70742C4.12966 5.79449 4.17857 5.91258 4.17857 6.03572V12.5357C4.17857 12.6589 4.12966 12.7769 4.04258 12.864C3.95551 12.9511 3.83742 13 3.71429 13C3.59115 13 3.47306 12.9511 3.38599 12.864C3.29892 12.7769 3.25 12.6589 3.25 12.5357V6.03572ZM12.5357 0.928576H9.05357L8.7808 0.385943C8.72302 0.269933 8.63402 0.172349 8.5238 0.104167C8.41358 0.0359856 8.28652 -8.7865e-05 8.15692 5.08762e-06H4.84018C4.71087 -0.000492004 4.58403 0.0354469 4.47421 0.103704C4.36438 0.171962 4.276 0.269777 4.2192 0.385943L3.94643 0.928576H0.464286C0.341149 0.928576 0.223057 0.977492 0.135986 1.06456C0.0489157 1.15163 0 1.26973 0 1.39286L0 2.32143C0 2.44457 0.0489157 2.56266 0.135986 2.64973C0.223057 2.7368 0.341149 2.78572 0.464286 2.78572H12.5357C12.6588 2.78572 12.7769 2.7368 12.864 2.64973C12.9511 2.56266 13 2.44457 13 2.32143V1.39286C13 1.26973 12.9511 1.15163 12.864 1.06456C12.7769 0.977492 12.6588 0.928576 12.5357 0.928576Z" fill="#E5E5E5"/>
</svg>
