<svg width="13" height="13" viewBox="0 0 13 13" fill="none" xmlns="http://www.w3.org/2000/svg">
<path d="M12.642 3.60627L11.4714 4.77683C11.3521 4.89617 11.1591 4.89617 11.0398 4.77683L8.22126 1.95834C8.10192 1.839 8.10192 1.64602 8.22126 1.52668L9.39183 0.35612C9.86665 -0.118707 10.6386 -0.118707 11.1159 0.35612L12.642 1.88217C13.1193 2.35699 13.1193 3.12891 12.642 3.60627ZM7.21575 2.5322L0.547861 9.20008L0.00955506 12.2852C-0.0640812 12.7016 0.299022 13.0622 0.715447 12.9911L3.80055 12.4502L10.4684 5.78235C10.5878 5.66301 10.5878 5.47003 10.4684 5.35069L7.64995 2.5322C7.52807 2.41286 7.33509 2.41286 7.21575 2.5322ZM3.15052 8.62877C3.01087 8.48911 3.01087 8.26567 3.15052 8.12601L7.06086 4.21567C7.20051 4.07602 7.42396 4.07602 7.56362 4.21567C7.70327 4.35533 7.70327 4.57878 7.56362 4.71843L3.65328 8.62877C3.51362 8.76842 3.29018 8.76842 3.15052 8.62877ZM2.23388 10.7642H3.45268V11.6859L1.81491 11.9729L1.02523 11.1832L1.31215 9.54541H2.23388V10.7642Z" fill="white"/>
</svg>
