<svg width="21" height="17" viewBox="0 0 21 17" fill="none" xmlns="http://www.w3.org/2000/svg">
<path d="M10.2216 4.2365L3.50028 9.77227V15.747C3.50028 15.9017 3.56173 16.05 3.67112 16.1594C3.78051 16.2688 3.92887 16.3303 4.08356 16.3303L8.16877 16.3197C8.32296 16.3189 8.47058 16.2571 8.57933 16.1478C8.68809 16.0385 8.74914 15.8906 8.74914 15.7364V12.2472C8.74914 12.0925 8.8106 11.9442 8.91998 11.8348C9.02937 11.7254 9.17773 11.6639 9.33243 11.6639H11.6656C11.8203 11.6639 11.9686 11.7254 12.078 11.8348C12.1874 11.9442 12.2489 12.0925 12.2489 12.2472V15.7338C12.2486 15.8106 12.2635 15.8866 12.2927 15.9576C12.322 16.0286 12.3649 16.0931 12.4191 16.1475C12.4733 16.2018 12.5376 16.245 12.6085 16.2744C12.6794 16.3038 12.7554 16.319 12.8322 16.319L16.9159 16.3303C17.0706 16.3303 17.219 16.2688 17.3284 16.1594C17.4377 16.05 17.4992 15.9017 17.4992 15.747V9.76826L10.7794 4.2365C10.7004 4.17282 10.6019 4.13809 10.5005 4.13809C10.399 4.13809 10.3006 4.17282 10.2216 4.2365ZM20.8385 7.99907L17.7908 5.48692V0.437466C17.7908 0.321443 17.7448 0.210172 17.6627 0.128131C17.5807 0.0460902 17.4694 0 17.3534 0H15.3119C15.1958 0 15.0846 0.0460902 15.0025 0.128131C14.9205 0.210172 14.8744 0.321443 14.8744 0.437466V3.0845L11.6105 0.399188C11.2973 0.14144 10.9043 0.000515243 10.4986 0.000515243C10.093 0.000515243 9.69997 0.14144 9.38675 0.399188L0.158763 7.99907C0.114465 8.03569 0.0778157 8.08067 0.0509086 8.13145C0.0240015 8.18223 0.00736429 8.23782 0.00194751 8.29504C-0.00346927 8.35225 0.00244057 8.40997 0.0193394 8.4649C0.0362382 8.51983 0.0637947 8.57089 0.100435 8.61517L1.03005 9.74529C1.06659 9.78972 1.11153 9.82651 1.16231 9.85355C1.21309 9.88059 1.2687 9.89735 1.32596 9.90287C1.38322 9.90839 1.441 9.90256 1.49601 9.88572C1.55102 9.86887 1.60216 9.84135 1.64651 9.80471L10.2216 2.74182C10.3006 2.67814 10.399 2.64342 10.5005 2.64342C10.6019 2.64342 10.7004 2.67814 10.7794 2.74182L19.3548 9.80471C19.3991 9.84135 19.4501 9.86891 19.5051 9.88581C19.56 9.90271 19.6177 9.90862 19.6749 9.9032C19.7321 9.89779 19.7877 9.88115 19.8385 9.85424C19.8893 9.82733 19.9343 9.79068 19.9709 9.74639L20.9005 8.61626C20.9371 8.57173 20.9645 8.52041 20.9812 8.46524C20.9979 8.41007 21.0036 8.35214 20.9978 8.29478C20.9921 8.23743 20.975 8.18178 20.9477 8.13103C20.9203 8.08028 20.8832 8.03544 20.8385 7.99907Z" fill="#747474"/>
</svg>
