<svg width="10" height="12" viewBox="0 0 10 12" fill="none" xmlns="http://www.w3.org/2000/svg">
<path d="M1.07143 4.81769H1.60714V3.26915C1.60714 1.46682 3.12946 0 5 0C6.87054 0 8.39286 1.46682 8.39286 3.26915V4.81769H8.92857C9.52009 4.81769 10 5.28011 10 5.85006V9.97951C10 10.5495 9.52009 11.0119 8.92857 11.0119H1.07143C0.479911 11.0119 0 10.5495 0 9.97951V5.85006C0 5.28011 0.479911 4.81769 1.07143 4.81769ZM3.39286 4.81769H6.60714V3.26915C6.60714 2.4153 5.88616 1.7206 5 1.7206C4.11384 1.7206 3.39286 2.4153 3.39286 3.26915V4.81769Z" fill="#747474"/>
</svg>
